<svg height="682.66586pt" viewBox="-21 -21 682.66586 682.66586" width="682.66586pt" xmlns="http://www.w3.org/2000/svg"><path d="m5.710938 462.503906 171.785156 171.78125c7.617187 7.617188 19.96875 7.617188 27.585937 0l145.597657-145.59375-199.371094-199.375-145.597656 145.601563c-7.613282 7.617187-7.613282 19.96875 0 27.585937zm90.679687 33.859375c-15.230469 0-27.574219-12.34375-27.574219-27.574219 0-15.230468 12.34375-27.570312 27.574219-27.570312s27.570313 12.339844 27.570313 27.570312c0 15.230469-12.339844 27.574219-27.570313 27.574219zm149.625-55.144531c15.230469 0 27.582031 12.339844 27.582031 27.570312 0 15.230469-12.351562 27.574219-27.582031 27.574219-15.214844 0-27.570313-12.34375-27.570313-27.574219 0-15.230468 12.355469-27.570312 27.570313-27.570312zm-94.3125-36.507812c0-10.765626 8.734375-19.507813 19.507813-19.507813 10.765624 0 19.507812 8.742187 19.507812 19.507813v123.957031c0 10.765625-8.742188 19.503906-19.507812 19.503906-10.773438 0-19.507813-8.738281-19.507813-19.503906zm0 0"/><path d="m603.574219 19.535156-152.402344-19.378906c-5.988281-.761719-11.992187 1.289062-16.253906 5.554688l-256.007813 256.007812 199.371094 199.371094 256.003906-256.007813c4.269532-4.265625 6.320313-10.269531 5.558594-16.253906l-19.375-152.402344c-1.125-8.824219-8.070312-15.773437-16.894531-16.890625zm-342.070313 256.449219c-7.609375-7.605469-7.609375-19.960937 0-27.582031l86.796875-86.78125c7.621094-7.621094 19.964844-7.621094 27.585938 0 7.617187 7.605468 7.617187 19.960937 0 27.582031l-86.785157 86.78125c-7.609374 7.609375-19.953124 7.648437-27.597656 0zm51.253906 51.257813c-7.621093-7.625-7.621093-19.96875 0-27.585938l142.5-142.5c7.609376-7.621094 19.960938-7.621094 27.582032 0 7.625 7.625 7.625 19.976562 0 27.585938l-142.5 142.5c-7.566406 7.566406-19.933594 7.644531-27.582032 0zm221.339844-91.246094-142.5 142.5c-7.671875 7.671875-20.054687 7.554687-27.585937 0-7.621094-7.621094-7.621094-19.976563 0-27.597656l142.488281-142.484376c7.621094-7.625 19.972656-7.625 27.597656 0 7.605469 7.605469 7.605469 19.960938 0 27.582032zm35.539063-117.960938c-13.15625 13.164063-34.5 13.164063-47.675781 0-13.164063-13.171875-13.164063-34.515625 0-47.675781 13.175781-13.15625 34.519531-13.15625 47.675781 0 13.160156 13.160156 13.160156 34.503906 0 47.675781zm0 0"/></svg>