<svg height="512pt" viewBox="0 -70 512 512" width="512pt" xmlns="http://www.w3.org/2000/svg"><path d="m512 209.890625-54.605469-30.972656-47.882812-114.917969h-74.511719v-64h-335v328.667969h65.671875c7.25 24.628906 30.050781 42.667969 56.996094 42.667969 26.945312 0 49.742187-18.039063 56.992187-42.667969h152.679688c7.25 24.628906 30.046875 42.667969 56.992187 42.667969 26.945313 0 49.746094-18.039063 56.996094-42.667969h65.671875zm-30 88.777344h-34.761719c-6.039062-26.402344-29.699219-46.164063-57.90625-46.164063-24.222656 0-45.09375 14.582032-54.332031 35.417969v-83.492187h106.566406l40.433594 22.933593zm-122.082031 13.253906c0-16.222656 13.195312-29.414063 29.414062-29.414063s29.414063 13.191407 29.414063 29.414063c0 16.21875-13.195313 29.414063-29.414063 29.414063s-29.414062-13.195313-29.414062-29.414063zm-179.347657-13.253906c-6.039062-26.402344-29.699218-46.164063-57.902343-46.164063-28.207031 0-51.867188 19.761719-57.90625 46.164063h-34.761719v-114.824219h162v-30h-162v-27.84375h204.667969v-30h-204.667969v-66h275v268.667969zm-57.902343 42.667969c-16.21875 0-29.414063-13.195313-29.414063-29.414063 0-16.222656 13.195313-29.414063 29.414063-29.414063s29.414062 13.191407 29.414062 29.414063c0 16.21875-13.195312 29.414063-29.414062 29.414063zm212.332031-247.335938h54.511719l33.511719 80.433594h-88.023438zm0 0"/></svg>